<svg xmlns="http://www.w3.org/2000/svg" viewBox="0 0 64 64"><circle fill="#ffbf0b" cx="32" cy="32" r="32"/><path fill="#1a1a54" d="M52 32c0 11-9 20-20 20s-20-9-20-20h40z"/><path fill="#dc2863" d="M32 41c-6 0-11.3 2-14.4 5 3.7 3.7 8.8 6 14.4 6s10.7-2.3 14.4-6.1C43.3 42.9 38 41 32 41z"/><path fill="#fff" d="M42.4 37H21.6c-1 0-1.8-.7-2-1.6L19 32h26l-.7 3.4c-.2.9-1 1.6-1.9 1.6z"/><path fill="#1a1a54" d="M9.3 20.6c1-1.3 2.3-2.1 3.7-2.7 1.4-.6 3-.8 4.5-.8 1.5.1 3 .4 4.4 1 .7.3 1.3.7 1.9 1.1.6.4 1.1.9 1.6 1.5.3.4.3 1-.1 1.3-.2.1-.4.2-.6.2h-.1c-.7 0-1.4-.1-2-.1-.6 0-1.2-.1-1.8-.2-1.2-.1-2.3-.1-3.5-.2-1.1 0-2.2.1-3.4.2-1.1.1-2.4.3-3.6.4H10c-.6.1-1.1-.4-1.2-1 .2-.2.3-.4.5-.7zm44.2 1.8c-1.2-.1-2.4-.3-3.6-.4-1.1-.1-2.3-.2-3.4-.2s-2.3 0-3.5.2c-.6 0-1.2.1-1.8.2-.6 0-1.3.2-2 .1h-.1c-.5 0-.9-.4-.9-.9 0-.2.1-.4.2-.6.5-.6 1-1.1 1.6-1.5.6-.4 1.2-.8 1.9-1.1 1.4-.6 2.9-.9 4.4-1 1.5 0 3.1.2 4.5.8 1.4.6 2.7 1.4 3.7 2.7.4.5.3 1.2-.2 1.5-.2.2-.5.2-.8.2z"/><path fill="#0b85ff" d="M60.3 33c-1.9 0-3.5-1.4-3.7-3.3L56 25l4.7.6c1.9.2 3.3 1.8 3.3 3.7 0 2-1.7 3.7-3.7 3.7zm2.2-11c-1 1-2.6 1.1-3.7.2L56 20l2.8-2.2c1.1-.9 2.7-.8 3.7.2 1.1 1.1 1.1 2.9 0 4zM3.7 33c1.9 0 3.5-1.4 3.7-3.3L8 25l-4.7.6c-1.9.2-3.3 1.8-3.3 3.7 0 2 1.7 3.7 3.7 3.7zM1.5 22c1 1 2.6 1.1 3.7.2L8 20l-2.8-2.2c-1.1-.9-2.7-.8-3.7.2-1.1 1.1-1.1 2.9 0 4z"/></svg>